<svg width="16.000000" height="16.000000" viewBox="0 0 16 16" fill="none" xmlns="http://www.w3.org/2000/svg" xmlns:xlink="http://www.w3.org/1999/xlink">
	<desc>
			Created with Pixso.
	</desc>
	<defs>
		<clipPath id="clip355_153">
			<rect id="akar-icons:link-out" rx="-0.500000" width="15.000000" height="15.000000" transform="translate(0.500000 0.500000)" fill="white" fill-opacity="0"/>
		</clipPath>
	</defs>
	<rect id="akar-icons:link-out" rx="-0.500000" width="15.000000" height="15.000000" transform="translate(0.500000 0.500000)" fill="#FFFFFF" fill-opacity="0"/>
	<g clip-path="url(#clip355_153)">
		<path id="Vector" d="M9 7L14 2M10.66 2L14 2L14 5.33M14 9.33L14 12.66C14 13.02 13.85 13.35 13.6 13.6C13.35 13.85 13.02 14 12.66 14L3.33 14C2.97 14 2.64 13.85 2.39 13.6C2.14 13.35 2 13.02 2 12.66L2 3.33C2 2.97 2.14 2.64 2.39 2.39C2.64 2.14 2.97 2 3.33 2L6.66 2" stroke="#FFFFFF" stroke-opacity="1.000000" stroke-width="2.000000" stroke-linejoin="round"/>
	</g>
</svg>
