<svg width="16.000000" height="16.000000" viewBox="0 0 16 16" fill="none" xmlns="http://www.w3.org/2000/svg" xmlns:xlink="http://www.w3.org/1999/xlink">
	<desc>
			Created with Pixso.
	</desc>
	<defs>
		<clipPath id="clip355_158">
			<rect id="ph:copy-bold" rx="-0.500000" width="15.000000" height="15.000000" transform="translate(0.500000 0.500000)" fill="white" fill-opacity="0"/>
		</clipPath>
	</defs>
	<rect id="ph:copy-bold" rx="-0.500000" width="15.000000" height="15.000000" transform="translate(0.500000 0.500000)" fill="#FFFFFF" fill-opacity="0"/>
	<g clip-path="url(#clip355_158)">
		<path id="Vector" d="M13.5 1.75L5.5 1.75C5.3 1.75 5.11 1.82 4.96 1.96C4.82 2.11 4.75 2.3 4.75 2.5L4.75 4.75L2.5 4.75C2.3 4.75 2.11 4.82 1.96 4.96C1.82 5.11 1.75 5.3 1.75 5.5L1.75 13.5C1.75 13.69 1.82 13.88 1.96 14.03C2.11 14.17 2.3 14.25 2.5 14.25L10.5 14.25C10.69 14.25 10.88 14.17 11.03 14.03C11.17 13.88 11.25 13.69 11.25 13.5L11.25 11.25L13.5 11.25C13.69 11.25 13.88 11.17 14.03 11.03C14.17 10.88 14.25 10.69 14.25 10.5L14.25 2.5C14.25 2.3 14.17 2.11 14.03 1.96C13.88 1.82 13.69 1.75 13.5 1.75ZM9.75 12.75L3.25 12.75L3.25 6.25L9.75 6.25L9.75 12.75ZM12.75 9.75L11.25 9.75L11.25 5.5C11.25 5.3 11.17 5.11 11.03 4.96C10.88 4.82 10.69 4.75 10.5 4.75L6.25 4.75L6.25 3.25L12.75 3.25L12.75 9.75Z" fill="#1E1E1E" fill-opacity="1.000000" fill-rule="nonzero"/>
	</g>
</svg>
