<svg width="16.000000" height="16.000000" viewBox="0 0 16 16" fill="none" xmlns="http://www.w3.org/2000/svg" xmlns:xlink="http://www.w3.org/1999/xlink">
	<desc>
			Created with Pixso.
	</desc>
	<defs>
		<clipPath id="clip363_189">
			<rect id="hugeicons:telegram" rx="-0.500000" width="15.000000" height="15.000000" transform="translate(0.500000 0.500000)" fill="white" fill-opacity="0"/>
		</clipPath>
	</defs>
	<rect id="hugeicons:telegram" rx="-0.500000" width="15.000000" height="15.000000" transform="translate(0.500000 0.500000)" fill="#FFFFFF" fill-opacity="0"/>
	<g clip-path="url(#clip363_189)">
		<path id="Vector" d="M10.16 6.5L7.77 8.98C7.53 9.23 7.41 9.36 7.41 9.51C7.41 9.67 7.53 9.79 7.77 10.05L7.98 10.27L10.15 12.72C10.95 13.63 11.35 14.09 11.77 13.98C12.19 13.87 12.33 13.27 12.62 12.07L14.21 5.43C14.65 3.58 14.87 2.66 14.38 2.2C13.89 1.75 13.04 2.09 11.33 2.76L3.42 5.9C2.06 6.45 1.38 6.72 1.33 7.18C1.33 7.23 1.33 7.28 1.33 7.33C1.37 7.79 2.06 8.06 3.42 8.61C4.03 8.86 4.34 8.98 4.56 9.22C4.59 9.25 4.61 9.27 4.64 9.3C4.84 9.55 4.93 9.89 5.1 10.55L5.43 11.8C5.6 12.44 5.68 12.77 5.9 12.81C6.12 12.86 6.32 12.59 6.7 12.05L7.98 10.27" stroke="#FFFFFF" stroke-opacity="1.000000" stroke-width="1.500000" stroke-linejoin="round"/>
	</g>
</svg>
